<svg width="1440" height="2040" viewBox="0 0 1440 2040" fill="none" xmlns="http://www.w3.org/2000/svg">
<rect width="1440" height="2040" rx="6" fill="url(#paint0_linear_41_34)"/>
<path d="M126.5 1800L140.099 1881.85L236 1899.4H140.099L126.5 2002L112.901 1899.4H17L112.901 1881.85L126.5 1800Z" fill="#CAE2B8" fill-opacity="0.47"/>
<path d="M232 1757L238.83 1794.28L287 1802.27H238.83L232 1849L225.17 1802.27H177L225.17 1794.28L232 1757Z" fill="#CAE2B8" fill-opacity="0.47"/>
<path d="M122 1687L128.83 1724.28L177 1732.27H128.83L122 1779L115.17 1732.27H67L115.17 1724.28L122 1687Z" fill="#CAE2B8" fill-opacity="0.47"/>
<path d="M396.5 1436L410.099 1517.85L506 1535.4H410.099L396.5 1638L382.901 1535.4H287L382.901 1517.85L396.5 1436Z" fill="#CAE2B8" fill-opacity="0.47"/>
<path d="M502 1393L508.83 1430.28L557 1438.27H508.83L502 1485L495.17 1438.27H447L495.17 1430.28L502 1393Z" fill="#CAE2B8" fill-opacity="0.47"/>
<path d="M392 1323L398.83 1360.28L447 1368.27H398.83L392 1415L385.17 1368.27H337L385.17 1360.28L392 1323Z" fill="#CAE2B8" fill-opacity="0.47"/>
<path d="M559.5 1048L573.099 1129.85L669 1147.4H573.099L559.5 1250L545.901 1147.4H450L545.901 1129.85L559.5 1048Z" fill="#CAE2B8" fill-opacity="0.47"/>
<path d="M665 1005L671.83 1042.28L720 1050.27H671.83L665 1097L658.17 1050.27H610L658.17 1042.28L665 1005Z" fill="#CAE2B8" fill-opacity="0.47"/>
<path d="M555 935L561.83 972.28L610 980.269H561.83L555 1027L548.17 980.269H500L548.17 972.28L555 935Z" fill="#CAE2B8" fill-opacity="0.47"/>
<path d="M396.5 660L410.099 741.855L506 759.395H410.099L396.5 862L382.901 759.395H287L382.901 741.855L396.5 660Z" fill="#CAE2B8" fill-opacity="0.47"/>
<path d="M502 617L508.83 654.28L557 662.269H508.83L502 709L495.17 662.269H447L495.17 654.28L502 617Z" fill="#CAE2B8" fill-opacity="0.47"/>
<path d="M392 547L398.83 584.28L447 592.269H398.83L392 639L385.17 592.269H337L385.17 584.28L392 547Z" fill="#CAE2B8" fill-opacity="0.47"/>
<path d="M176.5 345L190.099 426.855L286 444.395H190.099L176.5 547L162.901 444.395H67L162.901 426.855L176.5 345Z" fill="#CAE2B8" fill-opacity="0.47"/>
<path d="M282 302L288.83 339.28L337 347.269H288.83L282 394L275.17 347.269H227L275.17 339.28L282 302Z" fill="#CAE2B8" fill-opacity="0.47"/>
<path d="M172 232L178.83 269.28L227 277.269H178.83L172 324L165.17 277.269H117L165.17 269.28L172 232Z" fill="#CAE2B8" fill-opacity="0.47"/>
<defs>
<linearGradient id="paint0_linear_41_34" x1="1440" y1="-0.000120228" x2="-483.144" y2="686.466" gradientUnits="userSpaceOnUse">
<stop offset="0.258245" stop-color="#728E61"/>
<stop offset="0.740323" stop-color="#284D47"/>
</linearGradient>
</defs>
</svg>
