<svg width="1440" height="2040" viewBox="0 0 1440 2040" fill="none" xmlns="http://www.w3.org/2000/svg">
<rect width="1440" height="2040" rx="6" fill="url(#paint0_linear_43_4)"/>
<path d="M944.569 585.814C1093.57 743.814 849.788 980.136 641.069 770.636C432.288 987.636 108.569 793.814 328.568 585.814C138.569 458.314 399.569 205.814 699.569 320.314C982.069 196.814 1111.07 446.314 944.569 585.814Z" fill="#2A3E31" fill-opacity="0.62"/>
<path d="M1273.57 759.814C1422.57 917.814 1178.79 1154.14 970.069 944.636C761.288 1161.64 437.569 967.814 657.568 759.814C467.569 632.314 728.569 379.814 1028.57 494.314C1311.07 370.814 1440.07 620.314 1273.57 759.814Z" fill="#2A3E31" fill-opacity="0.62"/>
<path d="M888.569 1450.81C1037.57 1608.81 793.788 1845.14 585.069 1635.64C376.288 1852.64 52.5688 1658.81 272.568 1450.81C82.5686 1323.31 343.569 1070.81 643.569 1185.31C926.069 1061.81 1055.07 1311.31 888.569 1450.81Z" fill="#2A3E31" fill-opacity="0.62"/>
<path d="M1217.57 1624.81C1366.57 1782.81 1122.79 2019.14 914.069 1809.64C705.288 2026.64 381.569 1832.81 601.568 1624.81C411.569 1497.31 672.569 1244.81 972.569 1359.31C1255.07 1235.81 1384.07 1485.31 1217.57 1624.81Z" fill="#2A3E31" fill-opacity="0.62"/>
<defs>
<linearGradient id="paint0_linear_43_4" x1="1440" y1="-0.000120228" x2="-483.144" y2="686.466" gradientUnits="userSpaceOnUse">
<stop offset="0.258245" stop-color="#728E61"/>
<stop offset="0.740323" stop-color="#284D47"/>
</linearGradient>
</defs>
</svg>
