<svg width="1440" height="2040" viewBox="0 0 1440 2040" fill="none" xmlns="http://www.w3.org/2000/svg">
<g clip-path="url(#clip0_83_6)">
<rect width="1440" height="2040" rx="6" fill="url(#paint0_linear_83_6)"/>
<path d="M1091.89 946.9C1096.98 1026.54 973.979 1081.2 835.431 1016.4C753.818 1076.23 631.744 1067 599.025 978.407C591.593 862.144 737.957 818.217 828.701 911.117C955.47 795.795 1086.8 867.257 1091.89 946.9Z" fill="#DFFDE8" fill-opacity="0.19"/>
<path d="M1276.09 1006.73C1288.77 1085.52 1171.56 1151.68 1027.45 1100.42C951.931 1167.78 829.534 1170.26 788.497 1085.19C769.987 970.175 911.482 912.459 1010.69 996.261C1125.86 869.351 1263.41 927.934 1276.09 1006.73Z" fill="#DFFDE8" fill-opacity="0.19"/>
<path d="M1290.89 1283.9C1295.98 1363.54 1172.98 1418.2 1034.43 1353.4C952.818 1413.23 830.744 1404 798.025 1315.41C790.593 1199.14 936.957 1155.22 1027.7 1248.12C1154.47 1132.8 1285.8 1204.26 1290.89 1283.9Z" fill="#DFFDE8" fill-opacity="0.19"/>
<path d="M1475.09 1343.73C1487.77 1422.52 1370.56 1488.68 1226.45 1437.42C1150.93 1504.78 1028.53 1507.26 987.497 1422.19C968.987 1307.17 1110.48 1249.46 1209.69 1333.26C1324.86 1206.35 1462.41 1264.93 1475.09 1343.73Z" fill="#DFFDE8" fill-opacity="0.19"/>
<path d="M322.888 826.9C327.979 906.542 204.979 961.196 66.431 896.403C-15.1821 956.231 -137.256 947 -169.975 858.407C-177.407 742.144 -31.0428 698.217 59.7005 791.117C186.47 675.795 317.796 747.257 322.888 826.9Z" fill="#DFFDE8" fill-opacity="0.19"/>
<path d="M507.092 886.725C519.772 965.517 402.558 1031.68 258.452 980.421C182.931 1047.78 60.5336 1050.26 19.4973 965.195C0.987023 850.175 142.482 792.459 241.69 876.261C356.856 749.351 494.412 807.934 507.092 886.725Z" fill="#DFFDE8" fill-opacity="0.19"/>
</g>
<defs>
<linearGradient id="paint0_linear_83_6" x1="1440" y1="-0.000120228" x2="-483.144" y2="686.466" gradientUnits="userSpaceOnUse">
<stop offset="0.258245" stop-color="#728E61"/>
<stop offset="0.740323" stop-color="#284D47"/>
</linearGradient>
<clipPath id="clip0_83_6">
<rect width="1440" height="2040" rx="6" fill="white"/>
</clipPath>
</defs>
</svg>
