<svg width="1440" height="1020" viewBox="0 0 1440 1020" fill="none" xmlns="http://www.w3.org/2000/svg">
<g clip-path="url(#clip0_9_140)">
<rect width="1440" height="1020" rx="6" fill="url(#paint0_linear_9_140)"/>
<path d="M205.43 899.058C205.66 899.675 205.735 900.34 205.646 900.993L190.881 1010.18C190.653 1011.87 189.38 1013.23 187.71 1013.56L4.23195 1050.65C1.76171 1051.15 -0.54921 1049.27 -0.560558 1046.75L-1.87764 754.261C-1.88762 752.045 -0.0938534 750.243 2.12232 750.243L91.7772 750.243C92.5742 750.243 93.353 750.481 94.0138 750.927L167.938 800.783C168.629 801.249 169.157 801.92 169.448 802.7L205.43 899.058Z" fill="#BAD1A5"/>
<path d="M301.107 908.954C301.881 909.534 302.418 910.375 302.619 911.322L324.73 1015.28C325.083 1016.94 324.35 1018.65 322.901 1019.53L90.2066 1161.53C88.1456 1162.79 85.4487 1161.94 84.4679 1159.74L-29.3703 903.666C-30.2696 901.643 -29.3548 899.275 -27.3292 898.381L94.2939 844.745C94.8075 844.519 95.363 844.403 95.9242 844.405L214.364 844.887C215.224 844.891 216.06 845.171 216.748 845.687L301.107 908.954Z" fill="url(#paint1_linear_9_140)" fill-opacity="0.71"/>
<path d="M466.273 903.388C467.214 903.613 468.041 904.171 468.602 904.959L530.236 991.553C531.22 992.936 531.225 994.789 530.247 996.177L373.22 1219C371.829 1220.98 369.02 1221.28 367.243 1219.64L160.953 1029.97C159.324 1028.47 159.221 1025.93 160.724 1024.31L250.984 926.727C251.365 926.315 251.828 925.988 252.344 925.767L361.206 879.105C361.996 878.766 362.875 878.691 363.711 878.891L466.273 903.388Z" fill="url(#paint2_linear_9_140)" fill-opacity="0.71"/>
<path d="M1262.13 120.106C1261.96 119.471 1261.94 118.802 1262.09 118.159L1286.61 10.7418C1286.99 9.08066 1288.38 7.842 1290.07 7.65585L1476.14 -12.7944C1478.64 -13.0697 1480.78 -10.9878 1480.56 -8.47682L1455.59 282.947C1455.4 285.155 1453.45 286.788 1451.24 286.589L1361.95 278.532C1361.16 278.461 1360.4 278.153 1359.78 277.65L1290.64 221.352C1289.99 220.826 1289.53 220.111 1289.31 219.307L1262.13 120.106Z" fill="#2A3E31"/>
<path d="M1160.17 113.031C1159.45 112.384 1158.99 111.497 1158.87 110.537L1146.19 5.00736C1145.99 3.32216 1146.88 1.69268 1148.4 0.942326L1392.91 -119.568C1395.08 -120.635 1397.69 -119.555 1398.47 -117.27L1488.83 147.996C1489.54 150.092 1488.42 152.368 1486.32 153.076L1360.37 195.565C1359.84 195.745 1359.28 195.81 1358.72 195.757L1240.8 184.633C1239.94 184.553 1239.14 184.198 1238.5 183.623L1160.17 113.031Z" fill="url(#paint3_linear_9_140)" fill-opacity="0.71"/>
<path d="M995.168 103.731C994.251 103.423 993.477 102.793 992.989 101.957L939.387 10.175C938.531 8.7093 938.693 6.863 939.792 5.56906L1116.21 -202.245C1117.77 -204.086 1120.6 -204.133 1122.22 -202.346L1310.63 5.09979C1312.12 6.73855 1311.99 9.27458 1310.35 10.7581L1211.68 99.834C1211.27 100.21 1210.78 100.494 1210.24 100.668L1097.63 137.359C1096.81 137.625 1095.93 137.621 1095.11 137.347L995.168 103.731Z" fill="url(#paint4_linear_9_140)" fill-opacity="0.71"/>
</g>
<defs>
<linearGradient id="paint0_linear_9_140" x1="1440" y1="-6.0114e-05" x2="3.79044" y2="1025.31" gradientUnits="userSpaceOnUse">
<stop offset="0.258245" stop-color="#728E61"/>
<stop offset="0.740323" stop-color="#284D47"/>
</linearGradient>
<linearGradient id="paint1_linear_9_140" x1="301.729" y1="865.658" x2="60.3385" y2="1070.47" gradientUnits="userSpaceOnUse">
<stop stop-color="#88A275"/>
<stop offset="0.514536" stop-color="#57765D"/>
<stop offset="1" stop-color="#284D47"/>
</linearGradient>
<linearGradient id="paint2_linear_9_140" x1="449.625" y1="863.416" x2="309.6" y2="1147.33" gradientUnits="userSpaceOnUse">
<stop stop-color="#88A275"/>
<stop offset="0.514536" stop-color="#57765D"/>
<stop offset="1" stop-color="#284D47"/>
</linearGradient>
<linearGradient id="paint3_linear_9_140" x1="1155.66" y1="156.096" x2="1414.48" y2="-26.1913" gradientUnits="userSpaceOnUse">
<stop stop-color="#BAD1A5"/>
<stop offset="0.514536" stop-color="#BAD1A5"/>
<stop offset="1" stop-color="#728E61"/>
</linearGradient>
<linearGradient id="paint4_linear_9_140" x1="1008.16" y1="145.038" x2="1173.13" y2="-125.147" gradientUnits="userSpaceOnUse">
<stop stop-color="#2A3E31"/>
<stop offset="0.514536" stop-color="#57765D"/>
<stop offset="1" stop-color="#728E61"/>
</linearGradient>
<clipPath id="clip0_9_140">
<rect width="1440" height="1020" rx="6" fill="white"/>
</clipPath>
</defs>
</svg>
